inDegrees=no
num_controls=7
num_derivatives=13
num_iterations=122
num_multipliers=7
num_parameters=0
num_slacks=7
num_states=26
objective=0.446505
objective_accelerations=0.056216
objective_balance=0.003301
objective_effort=0.022097
objective_height=0.359367
objective_ligament=0.005525
solver_duration=1767.679146
status=Solve_Succeeded
success=true
DataType=double
version=3
OpenSimVersion=4.5
endheader
time	/jointset/ground_pelvis/pelvis_tilt/value	/jointset/ground_pelvis/pelvis_tx/value	/jointset/ground_pelvis/pelvis_ty/value	/jointset/hip_l/hip_flexion_l/value	/jointset/hip_l/hip_adduction_l/value	/jointset/hip_l/hip_rotation_l/value	/jointset/back/lumbar_extension/value	/jointset/patellofemoral_l/patellar_flexion_l/value	/jointset/knee_l/knee_flexion_l/value	/jointset/knee_l/knee_adduction_l/value	/jointset/knee_l/knee_rotation_l/value	/jointset/ankle_l/ankle_angle_l/value	/jointset/subtalar_l/subtalar_angle_l/value	/jointset/ground_pelvis/pelvis_tilt/speed	/jointset/ground_pelvis/pelvis_tx/speed	/jointset/ground_pelvis/pelvis_ty/speed	/jointset/hip_l/hip_flexion_l/speed	/jointset/hip_l/hip_adduction_l/speed	/jointset/hip_l/hip_rotation_l/speed	/jointset/back/lumbar_extension/speed	/jointset/patellofemoral_l/patellar_flexion_l/speed	/jointset/knee_l/knee_flexion_l/speed	/jointset/knee_l/knee_adduction_l/speed	/jointset/knee_l/knee_rotation_l/speed	/jointset/ankle_l/ankle_angle_l/speed	/jointset/subtalar_l/subtalar_angle_l/speed	/forceset/tau_hip_flexion_l	/forceset/tau_hip_adduction_l	/forceset/tau_hip_rotation_l	/forceset/tau_knee_flexion_l	/forceset/tau_ankle_angle_l	/forceset/tau_subtalar_angle_l	/forceset/tau_lumbar_extension	lambda_cid13_p0	lambda_cid13_p1	lambda_cid13_p2	lambda_cid13_p3	lambda_cid13_p4	lambda_cid13_p5	lambda_cid14_p0	/jointset/ground_pelvis/pelvis_tilt/accel	/jointset/ground_pelvis/pelvis_tx/accel	/jointset/ground_pelvis/pelvis_ty/accel	/jointset/hip_l/hip_flexion_l/accel	/jointset/hip_l/hip_adduction_l/accel	/jointset/hip_l/hip_rotation_l/accel	/jointset/back/lumbar_extension/accel	/jointset/patellofemoral_l/patellar_flexion_l/accel	/jointset/knee_l/knee_flexion_l/accel	/jointset/knee_l/knee_adduction_l/accel	/jointset/knee_l/knee_rotation_l/accel	/jointset/ankle_l/ankle_angle_l/accel	/jointset/subtalar_l/subtalar_angle_l/accel	gamma_cid13_p0	gamma_cid13_p1	gamma_cid13_p2	gamma_cid13_p3	gamma_cid13_p4	gamma_cid13_p5	gamma_cid14_p0
0	-0.03937271562944836	0.06884626200084107	0.8959446909873207	0.1955287580552426	-0.3220711696589189	-0.4821085931261704	-0.1379045077516729	0.07015288079084754	0.07015288079084844	-0.1745325858936111	-0.1166389642285453	-0.06701059314715049	0.003735739430328421	0	0	0	0	0	0	0	0	0	0	0	0	0	0.105741371332433	-0.1007948885053462	-0.03052570246368692	-0.2384238761865384	0.201986433961548	-0.01524610983445396	-0.04994128978971388	29.24077341780747	-1.380643132852477	3.176338987341803	-4.821344453425611	-515.8629132763231	-80.39893121474887	-39.88323727058822	-4.167962000309927	-1.677994280235289	-0.9402829287266734	12.01782700442045	-2.108607338603969	3.313953190922406	-2.782358501262661	10.21043305305574	10.21043305305637	0.6838809306900151	-0.8298476134075665	2.560249780668117	-0.920007507929779	-2.83089465906081e-08	1.151932003451356e-07	1.185338674738135e-07	1.229877166895392e-08	-1.876488776496191e-08	-4.598828466335084e-08	-5.923809779842321e-09
0.01	-0.0395715269858963	0.06876365898612262	0.8958990458293572	0.1961098233818309	-0.3221749592276666	-0.4819420884799022	-0.1380491662574354	0.07064892972833538	0.07064892972833871	-0.1745017976691186	-0.1166742200183986	-0.0668872841239859	0.003688935418539126	-0.03959686254291468	-0.01643128400197107	-0.009100299224797607	0.115697237218951	-0.0206562542610391	0.03316329415756426	-0.02866822851727117	0.0987674818057587	0.09876748180576365	0.006135793797557056	-0.007006096747137849	0.02457005927658948	-0.009300402579344065	0.1019616059592023	-0.1016059532173244	-0.02984510098153314	-0.2341809379701515	0.1954880440673272	-0.01129206860379052	-0.0466485731411731	27.27283190577703	-2.720487370155364	3.352453800679259	-4.368052541509914	-516.7469411030426	-83.16297761369835	-39.89329126378058	-3.830748221183315	-1.612295159120875	-0.8905973171652468	11.26828629176621	-2.02891670366225	3.296859289722309	-2.869534131692109	9.64356107537616	9.643561075376438	0.5751846341100522	-0.6292201539320802	2.391623567337374	-0.9260284536926765	-6.912337919528609e-08	1.446663209179956e-07	1.99153810738596e-07	4.895141347016963e-08	-2.38048150289241e-07	-9.867504021196585e-08	-1.234057455724008e-08
0.02	-0.04016134693575225	0.06851942319159593	0.8957632588995841	0.1978323839228319	-0.3224822677857863	-0.4814480825397455	-0.1384726028693175	0.07211938455008465	0.07211938455008444	-0.1744103003006262	-0.1167781826654403	-0.06652102659481858	0.003550933016805207	-0.0782017186818699	-0.03232655596165029	-0.01802835436195548	0.2282990428832558	-0.04070379787441424	0.06550025877708289	-0.0557556212238537	0.1948811768531254	0.194881176853129	0.01214182878796981	-0.01374137143688282	0.04858970120049897	-0.01823967798892831	0.09818184058590429	-0.1024170179293025	-0.02916449949937585	-0.2299379997538103	0.1889896541730875	-0.007338027373137324	-0.04335585649266931	25.36775682598244	-4.072745769229708	3.53215575823124	-4.082980601296888	-516.7186446328044	-85.76424147030963	-39.9228784735622	-3.969560719518059	-1.570791871776905	-0.9058341111987315	11.39874069349121	-1.986865209071232	3.148687283313281	-2.466191339124941	9.679675701377322	9.679675701376713	0.6579291692610362	-0.7756832019289915	2.450166310132122	-0.8477820739778711	-1.099378117999641e-07	1.741394414908556e-07	2.797737540033785e-07	8.560405527138532e-08	-4.573314128135202e-07	-1.513617957605809e-07	-1.875733933463784e-08
0.03	-0.04113252262536594	0.06811886775391023	0.8955387798827833	0.2006663571645393	-0.3229868418916221	-0.4806350330799579	-0.139158680358735	0.07453834687105829	0.07453834687105901	-0.1742590420417604	-0.1169485531090619	-0.06591711787134497	0.003325619180765318	-0.1158355919510922	-0.04769731036165542	-0.02685747604960888	0.3379633858086649	-0.06009344061651985	0.09697961624744804	-0.08122455265559539	0.2884702081996032	0.2884702081996044	0.01809605394173737	-0.0202796503086289	0.07209833620568923	-0.02674838666343043	0.09368173052046448	-0.09855900474127237	-0.02839085130891565	-0.225410181839341	0.1838962930559971	-0.007174509561916059	-0.03961116345476123	23.76746658710039	-3.955086179108906	3.617939424855836	-3.537149149122237	-516.6944971648926	-84.93861799464453	-39.97079286334835	-3.63063854141217	-1.507116773119737	-0.8700476075376913	10.67042864601409	-1.897426838883068	3.128020985078561	-2.551945444610297	9.132358757352661	9.13235875735268	0.5621661756780281	-0.5849062422809113	2.287153967825208	-0.8412687466159594	-1.388723810395742e-07	1.921176043531656e-07	3.347737883856921e-07	1.130505567207087e-07	-6.219707357127292e-07	-1.885413753842263e-07	-2.270403960885887e-08
0.04	-0.04247410462982829	0.06756722486242299	0.8952262903671081	0.2045810033462906	-0.3236817950312993	-0.4795110978442297	-0.1400923874423519	0.07787996788671164	0.07787996788671152	-0.1740486421338986	-0.1171827075438957	-0.06508093442339676	0.003017447561494493	-0.1522829816518317	-0.06254404672195817	-0.03563045413680372	0.4444336308920062	-0.07877960464273945	0.1276774139650306	-0.1052815400637983	0.379412915788867	0.3794129157888692	0.02397015858523842	-0.02649816967971486	0.09504464609538864	-0.03481123463511709	0.0891816204550173	-0.09470099155324666	-0.02761720311846502	-0.220882363924872	0.1788029319389053	-0.007010991750700267	-0.03586647041685642	22.22485477094302	-3.847422688572851	3.705199974003081	-3.148575416692911	-515.8380402016295	-83.95885218606428	-40.03552451434472	-3.732264005821531	-1.465988263836425	-0.8946053911070223	10.75992112507766	-1.846169465894045	2.992375332756767	-2.183802534417197	9.150410949934527	9.150410949934576	0.6419050672076958	-0.7117313017969688	2.33770128703395	-0.7586099334147992	-1.675620046427912e-07	2.098587577781447e-07	3.892455772240374e-07	1.403072408431889e-07	-7.85483379444411e-07	-2.254012194217899e-07	-2.659981071806596e-08
